%TF.GenerationSoftware,KiCad,Pcbnew,7.0.5-1.fc38*%
%TF.CreationDate,2023-07-21T11:59:43-04:00*%
%TF.ProjectId,driver-v0,64726976-6572-42d7-9630-2e6b69636164,rev?*%
%TF.SameCoordinates,Original*%
%TF.FileFunction,Copper,L2,Bot*%
%TF.FilePolarity,Positive*%
%FSLAX46Y46*%
G04 Gerber Fmt 4.6, Leading zero omitted, Abs format (unit mm)*
G04 Created by KiCad (PCBNEW 7.0.5-1.fc38) date 2023-07-21 11:59:43*
%MOMM*%
%LPD*%
G01*
G04 APERTURE LIST*
%TA.AperFunction,ComponentPad*%
%ADD10R,3.000000X3.000000*%
%TD*%
%TA.AperFunction,ComponentPad*%
%ADD11C,3.000000*%
%TD*%
%TA.AperFunction,ComponentPad*%
%ADD12R,2.000000X4.000000*%
%TD*%
%TA.AperFunction,ComponentPad*%
%ADD13O,2.000000X3.300000*%
%TD*%
%TA.AperFunction,ComponentPad*%
%ADD14O,3.500000X2.000000*%
%TD*%
%TA.AperFunction,ViaPad*%
%ADD15C,0.800000*%
%TD*%
%TA.AperFunction,ViaPad*%
%ADD16C,6.000000*%
%TD*%
G04 APERTURE END LIST*
D10*
%TO.P,J2,1,Pin_1*%
%TO.N,/in*%
X130000000Y-116460000D03*
D11*
%TO.P,J2,2,Pin_2*%
%TO.N,GND*%
X130000000Y-121540000D03*
%TD*%
D12*
%TO.P,J3,1*%
%TO.N,/12V_IN*%
X138500000Y-106000000D03*
D13*
%TO.P,J3,2*%
%TO.N,GND*%
X132500000Y-106000000D03*
D14*
%TO.P,J3,MP*%
%TO.N,N/C*%
X131500000Y-101500000D03*
X131500000Y-110500000D03*
%TD*%
D10*
%TO.P,J1,1,Pin_1*%
%TO.N,/out*%
X167000000Y-121500000D03*
D11*
%TO.P,J1,2,Pin_2*%
%TO.N,GND*%
X167000000Y-116420000D03*
%TD*%
D15*
%TO.N,GND*%
X150000000Y-118500000D03*
X157800000Y-117000000D03*
D16*
%TO.N,*%
X167000000Y-128000000D03*
D15*
%TO.N,GND*%
X158800000Y-101800000D03*
X151500000Y-118500000D03*
X145250000Y-120000000D03*
X153250000Y-118750000D03*
X148500000Y-118500000D03*
X151500000Y-116750000D03*
X146500000Y-118750000D03*
X154250000Y-117750000D03*
X157800000Y-113000000D03*
X158300000Y-123600000D03*
D16*
%TO.N,*%
X130000000Y-96000000D03*
D15*
%TO.N,GND*%
X153250000Y-116750000D03*
D16*
%TO.N,*%
X130000000Y-128000000D03*
D15*
%TO.N,GND*%
X156800000Y-124900000D03*
X155200000Y-101800000D03*
X154500000Y-128000000D03*
X148500000Y-128000000D03*
D16*
%TO.N,*%
X167000000Y-96000000D03*
D15*
%TO.N,GND*%
X155250000Y-118750000D03*
X151500000Y-128000000D03*
X145250000Y-118000000D03*
X148500000Y-116750000D03*
X150000000Y-113250000D03*
X145250000Y-128000000D03*
X150000000Y-116750000D03*
X146500000Y-116750000D03*
%TD*%
%TA.AperFunction,Conductor*%
%TO.N,GND*%
G36*
X164859215Y-93019685D02*
G01*
X164904970Y-93072489D01*
X164914914Y-93141647D01*
X164885889Y-93205203D01*
X164870212Y-93220366D01*
X164654498Y-93395047D01*
X164654490Y-93395054D01*
X164395054Y-93654490D01*
X164395047Y-93654498D01*
X164164147Y-93939635D01*
X163964320Y-94247343D01*
X163797746Y-94574260D01*
X163666260Y-94916793D01*
X163571294Y-95271209D01*
X163571294Y-95271211D01*
X163513898Y-95633594D01*
X163494696Y-95999999D01*
X163494696Y-96000000D01*
X163513898Y-96366405D01*
X163571294Y-96728788D01*
X163571294Y-96728790D01*
X163666260Y-97083206D01*
X163797746Y-97425739D01*
X163964320Y-97752656D01*
X164164147Y-98060364D01*
X164164149Y-98060366D01*
X164395051Y-98345506D01*
X164654494Y-98604949D01*
X164654498Y-98604952D01*
X164939635Y-98835852D01*
X165247343Y-99035679D01*
X165247348Y-99035682D01*
X165574264Y-99202255D01*
X165916801Y-99333742D01*
X166271206Y-99428705D01*
X166633596Y-99486102D01*
X166979734Y-99504241D01*
X166999999Y-99505304D01*
X167000000Y-99505304D01*
X167000001Y-99505304D01*
X167019202Y-99504297D01*
X167366404Y-99486102D01*
X167728794Y-99428705D01*
X168083199Y-99333742D01*
X168425736Y-99202255D01*
X168752652Y-99035682D01*
X169060366Y-98835851D01*
X169345506Y-98604949D01*
X169604949Y-98345506D01*
X169835851Y-98060366D01*
X170035682Y-97752652D01*
X170202255Y-97425736D01*
X170333742Y-97083199D01*
X170428705Y-96728794D01*
X170486102Y-96366404D01*
X170505304Y-96000000D01*
X170486102Y-95633596D01*
X170428705Y-95271206D01*
X170333742Y-94916801D01*
X170202255Y-94574264D01*
X170035682Y-94247348D01*
X169835851Y-93939634D01*
X169604949Y-93654494D01*
X169345506Y-93395051D01*
X169129787Y-93220365D01*
X169090077Y-93162879D01*
X169087749Y-93093048D01*
X169123544Y-93033044D01*
X169186098Y-93001918D01*
X169207824Y-93000000D01*
X170875500Y-93000000D01*
X170942539Y-93019685D01*
X170988294Y-93072489D01*
X170999500Y-93124000D01*
X170999500Y-130876000D01*
X170979815Y-130943039D01*
X170927011Y-130988794D01*
X170875500Y-131000000D01*
X169207824Y-131000000D01*
X169140785Y-130980315D01*
X169095030Y-130927511D01*
X169085086Y-130858353D01*
X169114111Y-130794797D01*
X169129788Y-130779634D01*
X169345506Y-130604949D01*
X169604949Y-130345506D01*
X169835851Y-130060366D01*
X170035682Y-129752652D01*
X170202255Y-129425736D01*
X170333742Y-129083199D01*
X170428705Y-128728794D01*
X170486102Y-128366404D01*
X170505304Y-128000000D01*
X170486102Y-127633596D01*
X170428705Y-127271206D01*
X170333742Y-126916801D01*
X170202255Y-126574264D01*
X170035682Y-126247348D01*
X169835851Y-125939634D01*
X169604949Y-125654494D01*
X169345506Y-125395051D01*
X169060366Y-125164149D01*
X169060364Y-125164147D01*
X168752656Y-124964320D01*
X168425739Y-124797746D01*
X168083206Y-124666260D01*
X168083199Y-124666258D01*
X167728794Y-124571295D01*
X167728790Y-124571294D01*
X167728789Y-124571294D01*
X167366405Y-124513898D01*
X167000001Y-124494696D01*
X166999999Y-124494696D01*
X166633594Y-124513898D01*
X166271211Y-124571294D01*
X166271209Y-124571294D01*
X165916793Y-124666260D01*
X165574260Y-124797746D01*
X165247343Y-124964320D01*
X164939635Y-125164147D01*
X164654498Y-125395047D01*
X164654490Y-125395054D01*
X164395054Y-125654490D01*
X164395047Y-125654498D01*
X164164147Y-125939635D01*
X163964320Y-126247343D01*
X163797746Y-126574260D01*
X163666260Y-126916793D01*
X163571294Y-127271209D01*
X163571294Y-127271211D01*
X163513898Y-127633594D01*
X163494696Y-127999999D01*
X163494696Y-128000000D01*
X163513898Y-128366405D01*
X163571294Y-128728788D01*
X163571294Y-128728790D01*
X163666260Y-129083206D01*
X163797746Y-129425739D01*
X163964320Y-129752656D01*
X164164147Y-130060364D01*
X164164149Y-130060366D01*
X164395051Y-130345506D01*
X164654494Y-130604949D01*
X164654498Y-130604952D01*
X164870212Y-130779634D01*
X164909923Y-130837121D01*
X164912251Y-130906952D01*
X164876456Y-130966956D01*
X164813902Y-130998082D01*
X164792176Y-131000000D01*
X132207824Y-131000000D01*
X132140785Y-130980315D01*
X132095030Y-130927511D01*
X132085086Y-130858353D01*
X132114111Y-130794797D01*
X132129788Y-130779634D01*
X132345506Y-130604949D01*
X132604949Y-130345506D01*
X132835851Y-130060366D01*
X133035682Y-129752652D01*
X133202255Y-129425736D01*
X133333742Y-129083199D01*
X133428705Y-128728794D01*
X133486102Y-128366404D01*
X133505304Y-128000000D01*
X133486102Y-127633596D01*
X133428705Y-127271206D01*
X133333742Y-126916801D01*
X133202255Y-126574264D01*
X133035682Y-126247348D01*
X132835851Y-125939634D01*
X132604949Y-125654494D01*
X132345506Y-125395051D01*
X132060366Y-125164149D01*
X132060364Y-125164147D01*
X131752656Y-124964320D01*
X131425739Y-124797746D01*
X131083206Y-124666260D01*
X131083199Y-124666258D01*
X130728794Y-124571295D01*
X130728790Y-124571294D01*
X130728789Y-124571294D01*
X130366405Y-124513898D01*
X130000001Y-124494696D01*
X129999999Y-124494696D01*
X129633594Y-124513898D01*
X129271211Y-124571294D01*
X129271209Y-124571294D01*
X128916793Y-124666260D01*
X128574260Y-124797746D01*
X128247343Y-124964320D01*
X127939635Y-125164147D01*
X127654498Y-125395047D01*
X127654490Y-125395054D01*
X127395054Y-125654490D01*
X127395047Y-125654498D01*
X127220366Y-125870211D01*
X127162879Y-125909922D01*
X127093048Y-125912250D01*
X127033044Y-125876454D01*
X127001918Y-125813901D01*
X127000000Y-125792175D01*
X127000000Y-121540001D01*
X127994891Y-121540001D01*
X128015300Y-121825362D01*
X128076109Y-122104895D01*
X128176091Y-122372958D01*
X128313191Y-122624038D01*
X128313196Y-122624046D01*
X128419882Y-122766561D01*
X128419883Y-122766562D01*
X129315195Y-121871250D01*
X129337340Y-121922587D01*
X129443433Y-122065094D01*
X129579530Y-122179294D01*
X129669216Y-122224335D01*
X128773436Y-123120115D01*
X128915960Y-123226807D01*
X128915961Y-123226808D01*
X129167042Y-123363908D01*
X129167041Y-123363908D01*
X129435104Y-123463890D01*
X129714637Y-123524699D01*
X129999999Y-123545109D01*
X130000001Y-123545109D01*
X130285362Y-123524699D01*
X130564895Y-123463890D01*
X130832958Y-123363908D01*
X131084047Y-123226803D01*
X131226561Y-123120116D01*
X131226562Y-123120115D01*
X131154317Y-123047870D01*
X164999500Y-123047870D01*
X164999501Y-123047876D01*
X165005908Y-123107483D01*
X165056202Y-123242328D01*
X165056206Y-123242335D01*
X165142452Y-123357544D01*
X165142455Y-123357547D01*
X165257664Y-123443793D01*
X165257671Y-123443797D01*
X165392517Y-123494091D01*
X165392516Y-123494091D01*
X165399444Y-123494835D01*
X165452127Y-123500500D01*
X168547872Y-123500499D01*
X168607483Y-123494091D01*
X168742331Y-123443796D01*
X168857546Y-123357546D01*
X168943796Y-123242331D01*
X168994091Y-123107483D01*
X169000500Y-123047873D01*
X169000499Y-119952128D01*
X168994091Y-119892517D01*
X168979425Y-119853196D01*
X168943797Y-119757671D01*
X168943793Y-119757664D01*
X168857547Y-119642455D01*
X168857544Y-119642452D01*
X168742335Y-119556206D01*
X168742328Y-119556202D01*
X168607482Y-119505908D01*
X168607483Y-119505908D01*
X168547883Y-119499501D01*
X168547881Y-119499500D01*
X168547873Y-119499500D01*
X168547864Y-119499500D01*
X165452129Y-119499500D01*
X165452123Y-119499501D01*
X165392516Y-119505908D01*
X165257671Y-119556202D01*
X165257664Y-119556206D01*
X165142455Y-119642452D01*
X165142452Y-119642455D01*
X165056206Y-119757664D01*
X165056202Y-119757671D01*
X165005908Y-119892517D01*
X164999501Y-119952116D01*
X164999501Y-119952123D01*
X164999500Y-119952135D01*
X164999500Y-123047870D01*
X131154317Y-123047870D01*
X130333748Y-122227300D01*
X130343409Y-122223784D01*
X130491844Y-122126157D01*
X130613764Y-121996930D01*
X130685768Y-121872215D01*
X131580115Y-122766562D01*
X131580116Y-122766561D01*
X131686803Y-122624047D01*
X131823908Y-122372958D01*
X131923890Y-122104895D01*
X131984699Y-121825362D01*
X132005108Y-121540001D01*
X132005108Y-121539998D01*
X131984699Y-121254637D01*
X131923890Y-120975104D01*
X131823908Y-120707041D01*
X131686808Y-120455961D01*
X131686807Y-120455960D01*
X131580115Y-120313436D01*
X130684803Y-121208747D01*
X130662660Y-121157413D01*
X130556567Y-121014906D01*
X130420470Y-120900706D01*
X130330781Y-120855663D01*
X131226562Y-119959883D01*
X131226561Y-119959882D01*
X131084046Y-119853196D01*
X131084038Y-119853191D01*
X130832957Y-119716091D01*
X130832958Y-119716091D01*
X130564895Y-119616109D01*
X130285362Y-119555300D01*
X130000001Y-119534891D01*
X129999999Y-119534891D01*
X129714637Y-119555300D01*
X129435104Y-119616109D01*
X129167041Y-119716091D01*
X128915961Y-119853191D01*
X128915953Y-119853196D01*
X128773436Y-119959882D01*
X128773436Y-119959883D01*
X129666251Y-120852699D01*
X129656591Y-120856216D01*
X129508156Y-120953843D01*
X129386236Y-121083070D01*
X129314231Y-121207784D01*
X128419883Y-120313436D01*
X128419882Y-120313437D01*
X128313196Y-120455953D01*
X128313191Y-120455961D01*
X128176091Y-120707041D01*
X128076109Y-120975104D01*
X128015300Y-121254637D01*
X127994891Y-121539998D01*
X127994891Y-121540001D01*
X127000000Y-121540001D01*
X127000000Y-118007870D01*
X127999500Y-118007870D01*
X127999501Y-118007876D01*
X128005908Y-118067483D01*
X128056202Y-118202328D01*
X128056206Y-118202335D01*
X128142452Y-118317544D01*
X128142455Y-118317547D01*
X128257664Y-118403793D01*
X128257671Y-118403797D01*
X128392517Y-118454091D01*
X128392516Y-118454091D01*
X128399444Y-118454835D01*
X128452127Y-118460500D01*
X131547872Y-118460499D01*
X131607483Y-118454091D01*
X131742331Y-118403796D01*
X131857546Y-118317546D01*
X131943796Y-118202331D01*
X131994091Y-118067483D01*
X132000500Y-118007873D01*
X132000499Y-116420001D01*
X164994891Y-116420001D01*
X165015300Y-116705362D01*
X165076109Y-116984895D01*
X165176091Y-117252958D01*
X165313191Y-117504038D01*
X165313196Y-117504046D01*
X165419882Y-117646561D01*
X165419883Y-117646562D01*
X166315195Y-116751250D01*
X166337340Y-116802587D01*
X166443433Y-116945094D01*
X166579530Y-117059294D01*
X166669216Y-117104335D01*
X165773436Y-118000115D01*
X165915960Y-118106807D01*
X165915961Y-118106808D01*
X166167042Y-118243908D01*
X166167041Y-118243908D01*
X166435104Y-118343890D01*
X166714637Y-118404699D01*
X166999999Y-118425109D01*
X167000001Y-118425109D01*
X167285362Y-118404699D01*
X167564895Y-118343890D01*
X167832958Y-118243908D01*
X168084047Y-118106803D01*
X168226561Y-118000116D01*
X168226562Y-118000115D01*
X167333748Y-117107300D01*
X167343409Y-117103784D01*
X167491844Y-117006157D01*
X167613764Y-116876930D01*
X167685768Y-116752215D01*
X168580115Y-117646562D01*
X168580116Y-117646561D01*
X168686803Y-117504047D01*
X168823908Y-117252958D01*
X168923890Y-116984895D01*
X168984699Y-116705362D01*
X169005109Y-116420001D01*
X169005109Y-116419998D01*
X168984699Y-116134637D01*
X168923890Y-115855104D01*
X168823908Y-115587041D01*
X168686808Y-115335961D01*
X168686807Y-115335960D01*
X168580115Y-115193436D01*
X167684803Y-116088747D01*
X167662660Y-116037413D01*
X167556567Y-115894906D01*
X167420470Y-115780706D01*
X167330782Y-115735663D01*
X168226562Y-114839883D01*
X168226561Y-114839882D01*
X168084046Y-114733196D01*
X168084038Y-114733191D01*
X167832957Y-114596091D01*
X167832958Y-114596091D01*
X167564895Y-114496109D01*
X167285362Y-114435300D01*
X167000001Y-114414891D01*
X166999999Y-114414891D01*
X166714637Y-114435300D01*
X166435104Y-114496109D01*
X166167041Y-114596091D01*
X165915961Y-114733191D01*
X165915953Y-114733196D01*
X165773437Y-114839882D01*
X165773436Y-114839883D01*
X166666252Y-115732699D01*
X166656591Y-115736216D01*
X166508156Y-115833843D01*
X166386236Y-115963070D01*
X166314231Y-116087784D01*
X165419883Y-115193436D01*
X165419882Y-115193437D01*
X165313196Y-115335953D01*
X165313191Y-115335961D01*
X165176091Y-115587041D01*
X165076109Y-115855104D01*
X165015300Y-116134637D01*
X164994891Y-116419998D01*
X164994891Y-116420001D01*
X132000499Y-116420001D01*
X132000499Y-114912128D01*
X131994091Y-114852517D01*
X131989378Y-114839882D01*
X131943797Y-114717671D01*
X131943793Y-114717664D01*
X131857547Y-114602455D01*
X131857544Y-114602452D01*
X131742335Y-114516206D01*
X131742328Y-114516202D01*
X131607482Y-114465908D01*
X131607483Y-114465908D01*
X131547883Y-114459501D01*
X131547881Y-114459500D01*
X131547873Y-114459500D01*
X131547864Y-114459500D01*
X128452129Y-114459500D01*
X128452123Y-114459501D01*
X128392516Y-114465908D01*
X128257671Y-114516202D01*
X128257664Y-114516206D01*
X128142455Y-114602452D01*
X128142452Y-114602455D01*
X128056206Y-114717664D01*
X128056202Y-114717671D01*
X128005908Y-114852517D01*
X127999501Y-114912116D01*
X127999501Y-114912123D01*
X127999500Y-114912135D01*
X127999500Y-118007870D01*
X127000000Y-118007870D01*
X127000000Y-110624334D01*
X129249500Y-110624334D01*
X129290429Y-110869616D01*
X129371169Y-111104802D01*
X129371172Y-111104811D01*
X129489524Y-111323506D01*
X129489526Y-111323509D01*
X129642262Y-111519744D01*
X129801744Y-111666557D01*
X129825217Y-111688166D01*
X130033393Y-111824173D01*
X130261118Y-111924063D01*
X130502175Y-111985107D01*
X130502179Y-111985108D01*
X130502181Y-111985108D01*
X130502186Y-111985109D01*
X130655589Y-111997819D01*
X130687933Y-112000500D01*
X130687937Y-112000500D01*
X132312063Y-112000500D01*
X132312067Y-112000500D01*
X132374677Y-111995311D01*
X132497813Y-111985109D01*
X132497816Y-111985108D01*
X132497821Y-111985108D01*
X132738881Y-111924063D01*
X132966607Y-111824173D01*
X133174785Y-111688164D01*
X133357738Y-111519744D01*
X133510474Y-111323509D01*
X133628828Y-111104810D01*
X133709571Y-110869614D01*
X133750500Y-110624335D01*
X133750500Y-110375665D01*
X133709571Y-110130386D01*
X133628828Y-109895190D01*
X133510474Y-109676491D01*
X133357738Y-109480256D01*
X133174785Y-109311836D01*
X133174782Y-109311833D01*
X132966606Y-109175826D01*
X132738881Y-109075936D01*
X132497824Y-109014892D01*
X132497813Y-109014890D01*
X132312077Y-108999500D01*
X132312067Y-108999500D01*
X130687933Y-108999500D01*
X130687922Y-108999500D01*
X130502186Y-109014890D01*
X130502175Y-109014892D01*
X130261118Y-109075936D01*
X130033393Y-109175826D01*
X129825217Y-109311833D01*
X129642261Y-109480257D01*
X129489524Y-109676493D01*
X129371172Y-109895188D01*
X129371169Y-109895197D01*
X129290429Y-110130383D01*
X129249500Y-110375665D01*
X129249500Y-110624334D01*
X127000000Y-110624334D01*
X127000000Y-106000000D01*
X128444417Y-106000000D01*
X128464699Y-106205932D01*
X128464700Y-106205934D01*
X128524768Y-106403954D01*
X128622315Y-106586450D01*
X128622317Y-106586452D01*
X128753589Y-106746410D01*
X128850209Y-106825702D01*
X128913550Y-106877685D01*
X129096046Y-106975232D01*
X129294066Y-107035300D01*
X129294065Y-107035300D01*
X129332647Y-107039100D01*
X129448392Y-107050500D01*
X129448395Y-107050500D01*
X129551605Y-107050500D01*
X129551608Y-107050500D01*
X129705934Y-107035300D01*
X129903954Y-106975232D01*
X130086450Y-106877685D01*
X130246410Y-106746410D01*
X130274605Y-106712054D01*
X131000000Y-106712054D01*
X131015385Y-106897730D01*
X131015387Y-106897738D01*
X131076412Y-107138717D01*
X131176267Y-107366367D01*
X131312232Y-107574478D01*
X131480592Y-107757364D01*
X131480602Y-107757373D01*
X131676762Y-107910051D01*
X131676771Y-107910057D01*
X131895385Y-108028364D01*
X131895396Y-108028369D01*
X132130507Y-108109083D01*
X132249999Y-108129023D01*
X132249999Y-108129022D01*
X132249999Y-107083686D01*
X132290156Y-107109493D01*
X132428111Y-107150000D01*
X132571889Y-107150000D01*
X132709844Y-107109493D01*
X132750000Y-107083686D01*
X132750000Y-108129023D01*
X132869492Y-108109083D01*
X133047799Y-108047870D01*
X136999500Y-108047870D01*
X136999501Y-108047876D01*
X137005908Y-108107483D01*
X137056202Y-108242328D01*
X137056206Y-108242335D01*
X137142452Y-108357544D01*
X137142455Y-108357547D01*
X137257664Y-108443793D01*
X137257671Y-108443797D01*
X137392517Y-108494091D01*
X137392516Y-108494091D01*
X137399444Y-108494835D01*
X137452127Y-108500500D01*
X139547872Y-108500499D01*
X139607483Y-108494091D01*
X139742331Y-108443796D01*
X139857546Y-108357546D01*
X139943796Y-108242331D01*
X139994091Y-108107483D01*
X140000500Y-108047873D01*
X140000499Y-103952128D01*
X139994091Y-103892517D01*
X139943796Y-103757669D01*
X139943795Y-103757668D01*
X139943793Y-103757664D01*
X139857547Y-103642455D01*
X139857544Y-103642452D01*
X139742335Y-103556206D01*
X139742328Y-103556202D01*
X139607482Y-103505908D01*
X139607483Y-103505908D01*
X139547883Y-103499501D01*
X139547881Y-103499500D01*
X139547873Y-103499500D01*
X139547864Y-103499500D01*
X137452129Y-103499500D01*
X137452123Y-103499501D01*
X137392516Y-103505908D01*
X137257671Y-103556202D01*
X137257664Y-103556206D01*
X137142455Y-103642452D01*
X137142452Y-103642455D01*
X137056206Y-103757664D01*
X137056202Y-103757671D01*
X137005908Y-103892517D01*
X136999501Y-103952116D01*
X136999501Y-103952123D01*
X136999500Y-103952135D01*
X136999500Y-108047870D01*
X133047799Y-108047870D01*
X133104603Y-108028369D01*
X133104614Y-108028364D01*
X133323228Y-107910057D01*
X133323237Y-107910051D01*
X133519397Y-107757373D01*
X133519407Y-107757364D01*
X133687767Y-107574478D01*
X133823732Y-107366367D01*
X133923587Y-107138717D01*
X133984612Y-106897738D01*
X133984614Y-106897730D01*
X133999999Y-106712054D01*
X134000000Y-106712039D01*
X134000000Y-106250000D01*
X133000000Y-106250000D01*
X133000000Y-105750000D01*
X134000000Y-105750000D01*
X134000000Y-105287961D01*
X133999999Y-105287945D01*
X133984614Y-105102269D01*
X133984612Y-105102261D01*
X133923587Y-104861282D01*
X133823732Y-104633632D01*
X133687767Y-104425521D01*
X133519407Y-104242635D01*
X133519397Y-104242626D01*
X133323237Y-104089948D01*
X133323228Y-104089942D01*
X133104614Y-103971635D01*
X133104603Y-103971630D01*
X132869492Y-103890916D01*
X132750000Y-103870976D01*
X132749999Y-103870976D01*
X132749999Y-104916313D01*
X132709844Y-104890507D01*
X132571889Y-104850000D01*
X132428111Y-104850000D01*
X132290156Y-104890507D01*
X132249999Y-104916313D01*
X132249999Y-103870976D01*
X132130507Y-103890916D01*
X131895396Y-103971630D01*
X131895385Y-103971635D01*
X131676771Y-104089942D01*
X131676762Y-104089948D01*
X131480602Y-104242626D01*
X131480592Y-104242635D01*
X131312232Y-104425521D01*
X131176267Y-104633632D01*
X131076412Y-104861282D01*
X131015387Y-105102261D01*
X131015385Y-105102269D01*
X131000000Y-105287945D01*
X131000000Y-105750000D01*
X132000000Y-105750000D01*
X132000000Y-106250000D01*
X131000000Y-106250000D01*
X131000000Y-106712054D01*
X130274605Y-106712054D01*
X130377685Y-106586450D01*
X130475232Y-106403954D01*
X130535300Y-106205934D01*
X130555583Y-106000000D01*
X130535300Y-105794066D01*
X130475232Y-105596046D01*
X130377685Y-105413550D01*
X130325702Y-105350209D01*
X130246410Y-105253589D01*
X130086452Y-105122317D01*
X130086453Y-105122317D01*
X130086450Y-105122315D01*
X129903954Y-105024768D01*
X129705934Y-104964700D01*
X129705932Y-104964699D01*
X129705934Y-104964699D01*
X129586805Y-104952966D01*
X129551608Y-104949500D01*
X129448392Y-104949500D01*
X129410298Y-104953251D01*
X129294067Y-104964699D01*
X129096043Y-105024769D01*
X128998515Y-105076900D01*
X128913550Y-105122315D01*
X128913548Y-105122316D01*
X128913547Y-105122317D01*
X128753589Y-105253589D01*
X128622317Y-105413547D01*
X128524769Y-105596043D01*
X128464699Y-105794067D01*
X128444417Y-106000000D01*
X127000000Y-106000000D01*
X127000000Y-101624334D01*
X129249500Y-101624334D01*
X129290429Y-101869616D01*
X129371169Y-102104802D01*
X129371172Y-102104811D01*
X129489524Y-102323506D01*
X129489526Y-102323509D01*
X129642262Y-102519744D01*
X129801744Y-102666557D01*
X129825217Y-102688166D01*
X130033393Y-102824173D01*
X130261118Y-102924063D01*
X130502175Y-102985107D01*
X130502179Y-102985108D01*
X130502181Y-102985108D01*
X130502186Y-102985109D01*
X130655589Y-102997819D01*
X130687933Y-103000500D01*
X130687937Y-103000500D01*
X132312063Y-103000500D01*
X132312067Y-103000500D01*
X132374677Y-102995311D01*
X132497813Y-102985109D01*
X132497816Y-102985108D01*
X132497821Y-102985108D01*
X132738881Y-102924063D01*
X132966607Y-102824173D01*
X133174785Y-102688164D01*
X133357738Y-102519744D01*
X133510474Y-102323509D01*
X133628828Y-102104810D01*
X133709571Y-101869614D01*
X133750500Y-101624335D01*
X133750500Y-101375665D01*
X133709571Y-101130386D01*
X133628828Y-100895190D01*
X133510474Y-100676491D01*
X133357738Y-100480256D01*
X133174785Y-100311836D01*
X133174782Y-100311833D01*
X132966606Y-100175826D01*
X132738881Y-100075936D01*
X132497824Y-100014892D01*
X132497813Y-100014890D01*
X132312077Y-99999500D01*
X132312067Y-99999500D01*
X130687933Y-99999500D01*
X130687922Y-99999500D01*
X130502186Y-100014890D01*
X130502175Y-100014892D01*
X130261118Y-100075936D01*
X130033393Y-100175826D01*
X129825217Y-100311833D01*
X129642261Y-100480257D01*
X129489524Y-100676493D01*
X129371172Y-100895188D01*
X129371169Y-100895197D01*
X129290429Y-101130383D01*
X129249500Y-101375665D01*
X129249500Y-101624334D01*
X127000000Y-101624334D01*
X127000000Y-98207824D01*
X127019685Y-98140785D01*
X127072489Y-98095030D01*
X127141647Y-98085086D01*
X127205203Y-98114111D01*
X127220365Y-98129787D01*
X127395051Y-98345506D01*
X127654494Y-98604949D01*
X127654498Y-98604952D01*
X127939635Y-98835852D01*
X128247343Y-99035679D01*
X128247348Y-99035682D01*
X128574264Y-99202255D01*
X128916801Y-99333742D01*
X129271206Y-99428705D01*
X129633596Y-99486102D01*
X129979734Y-99504241D01*
X129999999Y-99505304D01*
X130000000Y-99505304D01*
X130000001Y-99505304D01*
X130019202Y-99504297D01*
X130366404Y-99486102D01*
X130728794Y-99428705D01*
X131083199Y-99333742D01*
X131425736Y-99202255D01*
X131752652Y-99035682D01*
X132060366Y-98835851D01*
X132345506Y-98604949D01*
X132604949Y-98345506D01*
X132835851Y-98060366D01*
X133035682Y-97752652D01*
X133202255Y-97425736D01*
X133333742Y-97083199D01*
X133428705Y-96728794D01*
X133486102Y-96366404D01*
X133505304Y-96000000D01*
X133486102Y-95633596D01*
X133428705Y-95271206D01*
X133333742Y-94916801D01*
X133202255Y-94574264D01*
X133035682Y-94247348D01*
X132835851Y-93939634D01*
X132604949Y-93654494D01*
X132345506Y-93395051D01*
X132129787Y-93220365D01*
X132090077Y-93162879D01*
X132087749Y-93093048D01*
X132123544Y-93033044D01*
X132186098Y-93001918D01*
X132207824Y-93000000D01*
X164792176Y-93000000D01*
X164859215Y-93019685D01*
G37*
%TD.AperFunction*%
%TD*%
M02*
