%TF.GenerationSoftware,KiCad,Pcbnew,7.0.5-1.fc38*%
%TF.CreationDate,2023-07-21T11:59:43-04:00*%
%TF.ProjectId,driver-v0,64726976-6572-42d7-9630-2e6b69636164,rev?*%
%TF.SameCoordinates,Original*%
%TF.FileFunction,Legend,Top*%
%TF.FilePolarity,Positive*%
%FSLAX46Y46*%
G04 Gerber Fmt 4.6, Leading zero omitted, Abs format (unit mm)*
G04 Created by KiCad (PCBNEW 7.0.5-1.fc38) date 2023-07-21 11:59:43*
%MOMM*%
%LPD*%
G01*
G04 APERTURE LIST*
%ADD10C,0.300000*%
%ADD11C,0.400000*%
%ADD12C,0.150000*%
%ADD13C,0.120000*%
%ADD14C,0.127000*%
%ADD15C,0.200000*%
G04 APERTURE END LIST*
D10*
X134711653Y-97266114D02*
X134711653Y-97837542D01*
X134311653Y-96637542D02*
X134711653Y-97266114D01*
X134711653Y-97266114D02*
X135111653Y-96637542D01*
X135683081Y-97837542D02*
X135568796Y-97780400D01*
X135568796Y-97780400D02*
X135511653Y-97723257D01*
X135511653Y-97723257D02*
X135454510Y-97608971D01*
X135454510Y-97608971D02*
X135454510Y-97266114D01*
X135454510Y-97266114D02*
X135511653Y-97151828D01*
X135511653Y-97151828D02*
X135568796Y-97094685D01*
X135568796Y-97094685D02*
X135683081Y-97037542D01*
X135683081Y-97037542D02*
X135854510Y-97037542D01*
X135854510Y-97037542D02*
X135968796Y-97094685D01*
X135968796Y-97094685D02*
X136025939Y-97151828D01*
X136025939Y-97151828D02*
X136083081Y-97266114D01*
X136083081Y-97266114D02*
X136083081Y-97608971D01*
X136083081Y-97608971D02*
X136025939Y-97723257D01*
X136025939Y-97723257D02*
X135968796Y-97780400D01*
X135968796Y-97780400D02*
X135854510Y-97837542D01*
X135854510Y-97837542D02*
X135683081Y-97837542D01*
X137111653Y-97037542D02*
X137111653Y-97837542D01*
X136597367Y-97037542D02*
X136597367Y-97666114D01*
X136597367Y-97666114D02*
X136654510Y-97780400D01*
X136654510Y-97780400D02*
X136768795Y-97837542D01*
X136768795Y-97837542D02*
X136940224Y-97837542D01*
X136940224Y-97837542D02*
X137054510Y-97780400D01*
X137054510Y-97780400D02*
X137111653Y-97723257D01*
X137683081Y-97037542D02*
X137683081Y-97837542D01*
X137683081Y-97151828D02*
X137740224Y-97094685D01*
X137740224Y-97094685D02*
X137854509Y-97037542D01*
X137854509Y-97037542D02*
X138025938Y-97037542D01*
X138025938Y-97037542D02*
X138140224Y-97094685D01*
X138140224Y-97094685D02*
X138197367Y-97208971D01*
X138197367Y-97208971D02*
X138197367Y-97837542D01*
X139283081Y-97037542D02*
X139283081Y-98008971D01*
X139283081Y-98008971D02*
X139225938Y-98123257D01*
X139225938Y-98123257D02*
X139168795Y-98180400D01*
X139168795Y-98180400D02*
X139054509Y-98237542D01*
X139054509Y-98237542D02*
X138883081Y-98237542D01*
X138883081Y-98237542D02*
X138768795Y-98180400D01*
X139283081Y-97780400D02*
X139168795Y-97837542D01*
X139168795Y-97837542D02*
X138940223Y-97837542D01*
X138940223Y-97837542D02*
X138825938Y-97780400D01*
X138825938Y-97780400D02*
X138768795Y-97723257D01*
X138768795Y-97723257D02*
X138711652Y-97608971D01*
X138711652Y-97608971D02*
X138711652Y-97266114D01*
X138711652Y-97266114D02*
X138768795Y-97151828D01*
X138768795Y-97151828D02*
X138825938Y-97094685D01*
X138825938Y-97094685D02*
X138940223Y-97037542D01*
X138940223Y-97037542D02*
X139168795Y-97037542D01*
X139168795Y-97037542D02*
X139283081Y-97094685D01*
X140311652Y-97780400D02*
X140197366Y-97837542D01*
X140197366Y-97837542D02*
X139968795Y-97837542D01*
X139968795Y-97837542D02*
X139854509Y-97780400D01*
X139854509Y-97780400D02*
X139797366Y-97666114D01*
X139797366Y-97666114D02*
X139797366Y-97208971D01*
X139797366Y-97208971D02*
X139854509Y-97094685D01*
X139854509Y-97094685D02*
X139968795Y-97037542D01*
X139968795Y-97037542D02*
X140197366Y-97037542D01*
X140197366Y-97037542D02*
X140311652Y-97094685D01*
X140311652Y-97094685D02*
X140368795Y-97208971D01*
X140368795Y-97208971D02*
X140368795Y-97323257D01*
X140368795Y-97323257D02*
X139797366Y-97437542D01*
X140883080Y-97837542D02*
X140883080Y-97037542D01*
X140883080Y-97266114D02*
X140940223Y-97151828D01*
X140940223Y-97151828D02*
X140997366Y-97094685D01*
X140997366Y-97094685D02*
X141111651Y-97037542D01*
X141111651Y-97037542D02*
X141225937Y-97037542D01*
X143111651Y-97837542D02*
X142540223Y-97837542D01*
X142540223Y-97837542D02*
X142540223Y-96637542D01*
X144025938Y-97837542D02*
X144025938Y-97208971D01*
X144025938Y-97208971D02*
X143968795Y-97094685D01*
X143968795Y-97094685D02*
X143854509Y-97037542D01*
X143854509Y-97037542D02*
X143625938Y-97037542D01*
X143625938Y-97037542D02*
X143511652Y-97094685D01*
X144025938Y-97780400D02*
X143911652Y-97837542D01*
X143911652Y-97837542D02*
X143625938Y-97837542D01*
X143625938Y-97837542D02*
X143511652Y-97780400D01*
X143511652Y-97780400D02*
X143454509Y-97666114D01*
X143454509Y-97666114D02*
X143454509Y-97551828D01*
X143454509Y-97551828D02*
X143511652Y-97437542D01*
X143511652Y-97437542D02*
X143625938Y-97380400D01*
X143625938Y-97380400D02*
X143911652Y-97380400D01*
X143911652Y-97380400D02*
X144025938Y-97323257D01*
X144597366Y-97837542D02*
X144597366Y-96637542D01*
X144597366Y-97094685D02*
X144711652Y-97037542D01*
X144711652Y-97037542D02*
X144940223Y-97037542D01*
X144940223Y-97037542D02*
X145054509Y-97094685D01*
X145054509Y-97094685D02*
X145111652Y-97151828D01*
X145111652Y-97151828D02*
X145168794Y-97266114D01*
X145168794Y-97266114D02*
X145168794Y-97608971D01*
X145168794Y-97608971D02*
X145111652Y-97723257D01*
X145111652Y-97723257D02*
X145054509Y-97780400D01*
X145054509Y-97780400D02*
X144940223Y-97837542D01*
X144940223Y-97837542D02*
X144711652Y-97837542D01*
X144711652Y-97837542D02*
X144597366Y-97780400D01*
X146597366Y-97380400D02*
X147511652Y-97380400D01*
X147054509Y-97837542D02*
X147054509Y-96923257D01*
X149397366Y-97208971D02*
X149568794Y-97266114D01*
X149568794Y-97266114D02*
X149625937Y-97323257D01*
X149625937Y-97323257D02*
X149683080Y-97437542D01*
X149683080Y-97437542D02*
X149683080Y-97608971D01*
X149683080Y-97608971D02*
X149625937Y-97723257D01*
X149625937Y-97723257D02*
X149568794Y-97780400D01*
X149568794Y-97780400D02*
X149454509Y-97837542D01*
X149454509Y-97837542D02*
X148997366Y-97837542D01*
X148997366Y-97837542D02*
X148997366Y-96637542D01*
X148997366Y-96637542D02*
X149397366Y-96637542D01*
X149397366Y-96637542D02*
X149511652Y-96694685D01*
X149511652Y-96694685D02*
X149568794Y-96751828D01*
X149568794Y-96751828D02*
X149625937Y-96866114D01*
X149625937Y-96866114D02*
X149625937Y-96980400D01*
X149625937Y-96980400D02*
X149568794Y-97094685D01*
X149568794Y-97094685D02*
X149511652Y-97151828D01*
X149511652Y-97151828D02*
X149397366Y-97208971D01*
X149397366Y-97208971D02*
X148997366Y-97208971D01*
X150197366Y-96637542D02*
X150197366Y-97608971D01*
X150197366Y-97608971D02*
X150254509Y-97723257D01*
X150254509Y-97723257D02*
X150311652Y-97780400D01*
X150311652Y-97780400D02*
X150425937Y-97837542D01*
X150425937Y-97837542D02*
X150654509Y-97837542D01*
X150654509Y-97837542D02*
X150768794Y-97780400D01*
X150768794Y-97780400D02*
X150825937Y-97723257D01*
X150825937Y-97723257D02*
X150883080Y-97608971D01*
X150883080Y-97608971D02*
X150883080Y-96637542D01*
X152368795Y-97208971D02*
X152768795Y-97208971D01*
X152940223Y-97837542D02*
X152368795Y-97837542D01*
X152368795Y-97837542D02*
X152368795Y-96637542D01*
X152368795Y-96637542D02*
X152940223Y-96637542D01*
X153454509Y-97837542D02*
X153454509Y-96637542D01*
X153454509Y-96637542D02*
X153740223Y-96637542D01*
X153740223Y-96637542D02*
X153911652Y-96694685D01*
X153911652Y-96694685D02*
X154025937Y-96808971D01*
X154025937Y-96808971D02*
X154083080Y-96923257D01*
X154083080Y-96923257D02*
X154140223Y-97151828D01*
X154140223Y-97151828D02*
X154140223Y-97323257D01*
X154140223Y-97323257D02*
X154083080Y-97551828D01*
X154083080Y-97551828D02*
X154025937Y-97666114D01*
X154025937Y-97666114D02*
X153911652Y-97780400D01*
X153911652Y-97780400D02*
X153740223Y-97837542D01*
X153740223Y-97837542D02*
X153454509Y-97837542D01*
X155054509Y-97208971D02*
X154654509Y-97208971D01*
X154654509Y-97837542D02*
X154654509Y-96637542D01*
X154654509Y-96637542D02*
X155225937Y-96637542D01*
X134425939Y-95780400D02*
X134597368Y-95837542D01*
X134597368Y-95837542D02*
X134883082Y-95837542D01*
X134883082Y-95837542D02*
X134997368Y-95780400D01*
X134997368Y-95780400D02*
X135054510Y-95723257D01*
X135054510Y-95723257D02*
X135111653Y-95608971D01*
X135111653Y-95608971D02*
X135111653Y-95494685D01*
X135111653Y-95494685D02*
X135054510Y-95380400D01*
X135054510Y-95380400D02*
X134997368Y-95323257D01*
X134997368Y-95323257D02*
X134883082Y-95266114D01*
X134883082Y-95266114D02*
X134654510Y-95208971D01*
X134654510Y-95208971D02*
X134540225Y-95151828D01*
X134540225Y-95151828D02*
X134483082Y-95094685D01*
X134483082Y-95094685D02*
X134425939Y-94980400D01*
X134425939Y-94980400D02*
X134425939Y-94866114D01*
X134425939Y-94866114D02*
X134483082Y-94751828D01*
X134483082Y-94751828D02*
X134540225Y-94694685D01*
X134540225Y-94694685D02*
X134654510Y-94637542D01*
X134654510Y-94637542D02*
X134940225Y-94637542D01*
X134940225Y-94637542D02*
X135111653Y-94694685D01*
X135797367Y-95837542D02*
X135683082Y-95780400D01*
X135683082Y-95780400D02*
X135625939Y-95723257D01*
X135625939Y-95723257D02*
X135568796Y-95608971D01*
X135568796Y-95608971D02*
X135568796Y-95266114D01*
X135568796Y-95266114D02*
X135625939Y-95151828D01*
X135625939Y-95151828D02*
X135683082Y-95094685D01*
X135683082Y-95094685D02*
X135797367Y-95037542D01*
X135797367Y-95037542D02*
X135968796Y-95037542D01*
X135968796Y-95037542D02*
X136083082Y-95094685D01*
X136083082Y-95094685D02*
X136140225Y-95151828D01*
X136140225Y-95151828D02*
X136197367Y-95266114D01*
X136197367Y-95266114D02*
X136197367Y-95608971D01*
X136197367Y-95608971D02*
X136140225Y-95723257D01*
X136140225Y-95723257D02*
X136083082Y-95780400D01*
X136083082Y-95780400D02*
X135968796Y-95837542D01*
X135968796Y-95837542D02*
X135797367Y-95837542D01*
X136883081Y-95837542D02*
X136768796Y-95780400D01*
X136768796Y-95780400D02*
X136711653Y-95666114D01*
X136711653Y-95666114D02*
X136711653Y-94637542D01*
X137797367Y-95780400D02*
X137683081Y-95837542D01*
X137683081Y-95837542D02*
X137454510Y-95837542D01*
X137454510Y-95837542D02*
X137340224Y-95780400D01*
X137340224Y-95780400D02*
X137283081Y-95666114D01*
X137283081Y-95666114D02*
X137283081Y-95208971D01*
X137283081Y-95208971D02*
X137340224Y-95094685D01*
X137340224Y-95094685D02*
X137454510Y-95037542D01*
X137454510Y-95037542D02*
X137683081Y-95037542D01*
X137683081Y-95037542D02*
X137797367Y-95094685D01*
X137797367Y-95094685D02*
X137854510Y-95208971D01*
X137854510Y-95208971D02*
X137854510Y-95323257D01*
X137854510Y-95323257D02*
X137283081Y-95437542D01*
X138368795Y-95037542D02*
X138368795Y-95837542D01*
X138368795Y-95151828D02*
X138425938Y-95094685D01*
X138425938Y-95094685D02*
X138540223Y-95037542D01*
X138540223Y-95037542D02*
X138711652Y-95037542D01*
X138711652Y-95037542D02*
X138825938Y-95094685D01*
X138825938Y-95094685D02*
X138883081Y-95208971D01*
X138883081Y-95208971D02*
X138883081Y-95837542D01*
X139625937Y-95837542D02*
X139511652Y-95780400D01*
X139511652Y-95780400D02*
X139454509Y-95723257D01*
X139454509Y-95723257D02*
X139397366Y-95608971D01*
X139397366Y-95608971D02*
X139397366Y-95266114D01*
X139397366Y-95266114D02*
X139454509Y-95151828D01*
X139454509Y-95151828D02*
X139511652Y-95094685D01*
X139511652Y-95094685D02*
X139625937Y-95037542D01*
X139625937Y-95037542D02*
X139797366Y-95037542D01*
X139797366Y-95037542D02*
X139911652Y-95094685D01*
X139911652Y-95094685D02*
X139968795Y-95151828D01*
X139968795Y-95151828D02*
X140025937Y-95266114D01*
X140025937Y-95266114D02*
X140025937Y-95608971D01*
X140025937Y-95608971D02*
X139968795Y-95723257D01*
X139968795Y-95723257D02*
X139911652Y-95780400D01*
X139911652Y-95780400D02*
X139797366Y-95837542D01*
X139797366Y-95837542D02*
X139625937Y-95837542D01*
X140540223Y-95837542D02*
X140540223Y-95037542D01*
X140540223Y-94637542D02*
X140483080Y-94694685D01*
X140483080Y-94694685D02*
X140540223Y-94751828D01*
X140540223Y-94751828D02*
X140597366Y-94694685D01*
X140597366Y-94694685D02*
X140540223Y-94637542D01*
X140540223Y-94637542D02*
X140540223Y-94751828D01*
X141625938Y-95837542D02*
X141625938Y-94637542D01*
X141625938Y-95780400D02*
X141511652Y-95837542D01*
X141511652Y-95837542D02*
X141283080Y-95837542D01*
X141283080Y-95837542D02*
X141168795Y-95780400D01*
X141168795Y-95780400D02*
X141111652Y-95723257D01*
X141111652Y-95723257D02*
X141054509Y-95608971D01*
X141054509Y-95608971D02*
X141054509Y-95266114D01*
X141054509Y-95266114D02*
X141111652Y-95151828D01*
X141111652Y-95151828D02*
X141168795Y-95094685D01*
X141168795Y-95094685D02*
X141283080Y-95037542D01*
X141283080Y-95037542D02*
X141511652Y-95037542D01*
X141511652Y-95037542D02*
X141625938Y-95094685D01*
X143111652Y-95837542D02*
X143111652Y-94637542D01*
X143111652Y-94637542D02*
X143397366Y-94637542D01*
X143397366Y-94637542D02*
X143568795Y-94694685D01*
X143568795Y-94694685D02*
X143683080Y-94808971D01*
X143683080Y-94808971D02*
X143740223Y-94923257D01*
X143740223Y-94923257D02*
X143797366Y-95151828D01*
X143797366Y-95151828D02*
X143797366Y-95323257D01*
X143797366Y-95323257D02*
X143740223Y-95551828D01*
X143740223Y-95551828D02*
X143683080Y-95666114D01*
X143683080Y-95666114D02*
X143568795Y-95780400D01*
X143568795Y-95780400D02*
X143397366Y-95837542D01*
X143397366Y-95837542D02*
X143111652Y-95837542D01*
X144311652Y-95837542D02*
X144311652Y-95037542D01*
X144311652Y-95266114D02*
X144368795Y-95151828D01*
X144368795Y-95151828D02*
X144425938Y-95094685D01*
X144425938Y-95094685D02*
X144540223Y-95037542D01*
X144540223Y-95037542D02*
X144654509Y-95037542D01*
X145054509Y-95837542D02*
X145054509Y-95037542D01*
X145054509Y-94637542D02*
X144997366Y-94694685D01*
X144997366Y-94694685D02*
X145054509Y-94751828D01*
X145054509Y-94751828D02*
X145111652Y-94694685D01*
X145111652Y-94694685D02*
X145054509Y-94637542D01*
X145054509Y-94637542D02*
X145054509Y-94751828D01*
X145511652Y-95037542D02*
X145797366Y-95837542D01*
X145797366Y-95837542D02*
X146083081Y-95037542D01*
X146997367Y-95780400D02*
X146883081Y-95837542D01*
X146883081Y-95837542D02*
X146654510Y-95837542D01*
X146654510Y-95837542D02*
X146540224Y-95780400D01*
X146540224Y-95780400D02*
X146483081Y-95666114D01*
X146483081Y-95666114D02*
X146483081Y-95208971D01*
X146483081Y-95208971D02*
X146540224Y-95094685D01*
X146540224Y-95094685D02*
X146654510Y-95037542D01*
X146654510Y-95037542D02*
X146883081Y-95037542D01*
X146883081Y-95037542D02*
X146997367Y-95094685D01*
X146997367Y-95094685D02*
X147054510Y-95208971D01*
X147054510Y-95208971D02*
X147054510Y-95323257D01*
X147054510Y-95323257D02*
X146483081Y-95437542D01*
X147568795Y-95837542D02*
X147568795Y-95037542D01*
X147568795Y-95266114D02*
X147625938Y-95151828D01*
X147625938Y-95151828D02*
X147683081Y-95094685D01*
X147683081Y-95094685D02*
X147797366Y-95037542D01*
X147797366Y-95037542D02*
X147911652Y-95037542D01*
D11*
X160358395Y-116220866D02*
X162263157Y-116220866D01*
X160358395Y-121720866D02*
X162263157Y-121720866D01*
X161310776Y-122673247D02*
X161310776Y-120768485D01*
D10*
X135840225Y-115800828D02*
X136697368Y-115800828D01*
X136268796Y-117300828D02*
X136268796Y-115800828D01*
X136983082Y-115800828D02*
X137840225Y-115800828D01*
X137411653Y-117300828D02*
X137411653Y-115800828D01*
X139054510Y-117300828D02*
X138340224Y-117300828D01*
X138340224Y-117300828D02*
X138340224Y-115800828D01*
X153368796Y-95037542D02*
X153654510Y-95837542D01*
X153654510Y-95837542D02*
X153940225Y-95037542D01*
X155025939Y-95837542D02*
X154340225Y-95837542D01*
X154683082Y-95837542D02*
X154683082Y-94637542D01*
X154683082Y-94637542D02*
X154568796Y-94808971D01*
X154568796Y-94808971D02*
X154454511Y-94923257D01*
X154454511Y-94923257D02*
X154340225Y-94980400D01*
X141840225Y-110300828D02*
X140983082Y-110300828D01*
X141411653Y-110300828D02*
X141411653Y-108800828D01*
X141411653Y-108800828D02*
X141268796Y-109015114D01*
X141268796Y-109015114D02*
X141125939Y-109157971D01*
X141125939Y-109157971D02*
X140983082Y-109229400D01*
X142411653Y-108943685D02*
X142483081Y-108872257D01*
X142483081Y-108872257D02*
X142625939Y-108800828D01*
X142625939Y-108800828D02*
X142983081Y-108800828D01*
X142983081Y-108800828D02*
X143125939Y-108872257D01*
X143125939Y-108872257D02*
X143197367Y-108943685D01*
X143197367Y-108943685D02*
X143268796Y-109086542D01*
X143268796Y-109086542D02*
X143268796Y-109229400D01*
X143268796Y-109229400D02*
X143197367Y-109443685D01*
X143197367Y-109443685D02*
X142340224Y-110300828D01*
X142340224Y-110300828D02*
X143268796Y-110300828D01*
X143697367Y-108800828D02*
X144197367Y-110300828D01*
X144197367Y-110300828D02*
X144697367Y-108800828D01*
X136840225Y-120872257D02*
X136697368Y-120800828D01*
X136697368Y-120800828D02*
X136483082Y-120800828D01*
X136483082Y-120800828D02*
X136268796Y-120872257D01*
X136268796Y-120872257D02*
X136125939Y-121015114D01*
X136125939Y-121015114D02*
X136054510Y-121157971D01*
X136054510Y-121157971D02*
X135983082Y-121443685D01*
X135983082Y-121443685D02*
X135983082Y-121657971D01*
X135983082Y-121657971D02*
X136054510Y-121943685D01*
X136054510Y-121943685D02*
X136125939Y-122086542D01*
X136125939Y-122086542D02*
X136268796Y-122229400D01*
X136268796Y-122229400D02*
X136483082Y-122300828D01*
X136483082Y-122300828D02*
X136625939Y-122300828D01*
X136625939Y-122300828D02*
X136840225Y-122229400D01*
X136840225Y-122229400D02*
X136911653Y-122157971D01*
X136911653Y-122157971D02*
X136911653Y-121657971D01*
X136911653Y-121657971D02*
X136625939Y-121657971D01*
X137554510Y-122300828D02*
X137554510Y-120800828D01*
X137554510Y-120800828D02*
X138411653Y-122300828D01*
X138411653Y-122300828D02*
X138411653Y-120800828D01*
X139125939Y-122300828D02*
X139125939Y-120800828D01*
X139125939Y-120800828D02*
X139483082Y-120800828D01*
X139483082Y-120800828D02*
X139697368Y-120872257D01*
X139697368Y-120872257D02*
X139840225Y-121015114D01*
X139840225Y-121015114D02*
X139911654Y-121157971D01*
X139911654Y-121157971D02*
X139983082Y-121443685D01*
X139983082Y-121443685D02*
X139983082Y-121657971D01*
X139983082Y-121657971D02*
X139911654Y-121943685D01*
X139911654Y-121943685D02*
X139840225Y-122086542D01*
X139840225Y-122086542D02*
X139697368Y-122229400D01*
X139697368Y-122229400D02*
X139483082Y-122300828D01*
X139483082Y-122300828D02*
X139125939Y-122300828D01*
D12*
%TO.C,R3*%
X145083333Y-123454819D02*
X144750000Y-122978628D01*
X144511905Y-123454819D02*
X144511905Y-122454819D01*
X144511905Y-122454819D02*
X144892857Y-122454819D01*
X144892857Y-122454819D02*
X144988095Y-122502438D01*
X144988095Y-122502438D02*
X145035714Y-122550057D01*
X145035714Y-122550057D02*
X145083333Y-122645295D01*
X145083333Y-122645295D02*
X145083333Y-122788152D01*
X145083333Y-122788152D02*
X145035714Y-122883390D01*
X145035714Y-122883390D02*
X144988095Y-122931009D01*
X144988095Y-122931009D02*
X144892857Y-122978628D01*
X144892857Y-122978628D02*
X144511905Y-122978628D01*
X145416667Y-122454819D02*
X146035714Y-122454819D01*
X146035714Y-122454819D02*
X145702381Y-122835771D01*
X145702381Y-122835771D02*
X145845238Y-122835771D01*
X145845238Y-122835771D02*
X145940476Y-122883390D01*
X145940476Y-122883390D02*
X145988095Y-122931009D01*
X145988095Y-122931009D02*
X146035714Y-123026247D01*
X146035714Y-123026247D02*
X146035714Y-123264342D01*
X146035714Y-123264342D02*
X145988095Y-123359580D01*
X145988095Y-123359580D02*
X145940476Y-123407200D01*
X145940476Y-123407200D02*
X145845238Y-123454819D01*
X145845238Y-123454819D02*
X145559524Y-123454819D01*
X145559524Y-123454819D02*
X145464286Y-123407200D01*
X145464286Y-123407200D02*
X145416667Y-123359580D01*
%TO.C,R1*%
X141583333Y-113454819D02*
X141250000Y-112978628D01*
X141011905Y-113454819D02*
X141011905Y-112454819D01*
X141011905Y-112454819D02*
X141392857Y-112454819D01*
X141392857Y-112454819D02*
X141488095Y-112502438D01*
X141488095Y-112502438D02*
X141535714Y-112550057D01*
X141535714Y-112550057D02*
X141583333Y-112645295D01*
X141583333Y-112645295D02*
X141583333Y-112788152D01*
X141583333Y-112788152D02*
X141535714Y-112883390D01*
X141535714Y-112883390D02*
X141488095Y-112931009D01*
X141488095Y-112931009D02*
X141392857Y-112978628D01*
X141392857Y-112978628D02*
X141011905Y-112978628D01*
X142535714Y-113454819D02*
X141964286Y-113454819D01*
X142250000Y-113454819D02*
X142250000Y-112454819D01*
X142250000Y-112454819D02*
X142154762Y-112597676D01*
X142154762Y-112597676D02*
X142059524Y-112692914D01*
X142059524Y-112692914D02*
X141964286Y-112740533D01*
%TO.C,C3*%
X156083333Y-113059580D02*
X156035714Y-113107200D01*
X156035714Y-113107200D02*
X155892857Y-113154819D01*
X155892857Y-113154819D02*
X155797619Y-113154819D01*
X155797619Y-113154819D02*
X155654762Y-113107200D01*
X155654762Y-113107200D02*
X155559524Y-113011961D01*
X155559524Y-113011961D02*
X155511905Y-112916723D01*
X155511905Y-112916723D02*
X155464286Y-112726247D01*
X155464286Y-112726247D02*
X155464286Y-112583390D01*
X155464286Y-112583390D02*
X155511905Y-112392914D01*
X155511905Y-112392914D02*
X155559524Y-112297676D01*
X155559524Y-112297676D02*
X155654762Y-112202438D01*
X155654762Y-112202438D02*
X155797619Y-112154819D01*
X155797619Y-112154819D02*
X155892857Y-112154819D01*
X155892857Y-112154819D02*
X156035714Y-112202438D01*
X156035714Y-112202438D02*
X156083333Y-112250057D01*
X156416667Y-112154819D02*
X157035714Y-112154819D01*
X157035714Y-112154819D02*
X156702381Y-112535771D01*
X156702381Y-112535771D02*
X156845238Y-112535771D01*
X156845238Y-112535771D02*
X156940476Y-112583390D01*
X156940476Y-112583390D02*
X156988095Y-112631009D01*
X156988095Y-112631009D02*
X157035714Y-112726247D01*
X157035714Y-112726247D02*
X157035714Y-112964342D01*
X157035714Y-112964342D02*
X156988095Y-113059580D01*
X156988095Y-113059580D02*
X156940476Y-113107200D01*
X156940476Y-113107200D02*
X156845238Y-113154819D01*
X156845238Y-113154819D02*
X156559524Y-113154819D01*
X156559524Y-113154819D02*
X156464286Y-113107200D01*
X156464286Y-113107200D02*
X156416667Y-113059580D01*
%TO.C,F1*%
X146266666Y-106681009D02*
X145933333Y-106681009D01*
X145933333Y-107204819D02*
X145933333Y-106204819D01*
X145933333Y-106204819D02*
X146409523Y-106204819D01*
X147314285Y-107204819D02*
X146742857Y-107204819D01*
X147028571Y-107204819D02*
X147028571Y-106204819D01*
X147028571Y-106204819D02*
X146933333Y-106347676D01*
X146933333Y-106347676D02*
X146838095Y-106442914D01*
X146838095Y-106442914D02*
X146742857Y-106490533D01*
%TO.C,R5*%
X144583333Y-117204819D02*
X144250000Y-116728628D01*
X144011905Y-117204819D02*
X144011905Y-116204819D01*
X144011905Y-116204819D02*
X144392857Y-116204819D01*
X144392857Y-116204819D02*
X144488095Y-116252438D01*
X144488095Y-116252438D02*
X144535714Y-116300057D01*
X144535714Y-116300057D02*
X144583333Y-116395295D01*
X144583333Y-116395295D02*
X144583333Y-116538152D01*
X144583333Y-116538152D02*
X144535714Y-116633390D01*
X144535714Y-116633390D02*
X144488095Y-116681009D01*
X144488095Y-116681009D02*
X144392857Y-116728628D01*
X144392857Y-116728628D02*
X144011905Y-116728628D01*
X145488095Y-116204819D02*
X145011905Y-116204819D01*
X145011905Y-116204819D02*
X144964286Y-116681009D01*
X144964286Y-116681009D02*
X145011905Y-116633390D01*
X145011905Y-116633390D02*
X145107143Y-116585771D01*
X145107143Y-116585771D02*
X145345238Y-116585771D01*
X145345238Y-116585771D02*
X145440476Y-116633390D01*
X145440476Y-116633390D02*
X145488095Y-116681009D01*
X145488095Y-116681009D02*
X145535714Y-116776247D01*
X145535714Y-116776247D02*
X145535714Y-117014342D01*
X145535714Y-117014342D02*
X145488095Y-117109580D01*
X145488095Y-117109580D02*
X145440476Y-117157200D01*
X145440476Y-117157200D02*
X145345238Y-117204819D01*
X145345238Y-117204819D02*
X145107143Y-117204819D01*
X145107143Y-117204819D02*
X145011905Y-117157200D01*
X145011905Y-117157200D02*
X144964286Y-117109580D01*
%TO.C,U1*%
X145954819Y-121261904D02*
X146764342Y-121261904D01*
X146764342Y-121261904D02*
X146859580Y-121214285D01*
X146859580Y-121214285D02*
X146907200Y-121166666D01*
X146907200Y-121166666D02*
X146954819Y-121071428D01*
X146954819Y-121071428D02*
X146954819Y-120880952D01*
X146954819Y-120880952D02*
X146907200Y-120785714D01*
X146907200Y-120785714D02*
X146859580Y-120738095D01*
X146859580Y-120738095D02*
X146764342Y-120690476D01*
X146764342Y-120690476D02*
X145954819Y-120690476D01*
X146954819Y-119690476D02*
X146954819Y-120261904D01*
X146954819Y-119976190D02*
X145954819Y-119976190D01*
X145954819Y-119976190D02*
X146097676Y-120071428D01*
X146097676Y-120071428D02*
X146192914Y-120166666D01*
X146192914Y-120166666D02*
X146240533Y-120261904D01*
%TO.C,D2*%
X156261905Y-119204819D02*
X156261905Y-118204819D01*
X156261905Y-118204819D02*
X156500000Y-118204819D01*
X156500000Y-118204819D02*
X156642857Y-118252438D01*
X156642857Y-118252438D02*
X156738095Y-118347676D01*
X156738095Y-118347676D02*
X156785714Y-118442914D01*
X156785714Y-118442914D02*
X156833333Y-118633390D01*
X156833333Y-118633390D02*
X156833333Y-118776247D01*
X156833333Y-118776247D02*
X156785714Y-118966723D01*
X156785714Y-118966723D02*
X156738095Y-119061961D01*
X156738095Y-119061961D02*
X156642857Y-119157200D01*
X156642857Y-119157200D02*
X156500000Y-119204819D01*
X156500000Y-119204819D02*
X156261905Y-119204819D01*
X157214286Y-118300057D02*
X157261905Y-118252438D01*
X157261905Y-118252438D02*
X157357143Y-118204819D01*
X157357143Y-118204819D02*
X157595238Y-118204819D01*
X157595238Y-118204819D02*
X157690476Y-118252438D01*
X157690476Y-118252438D02*
X157738095Y-118300057D01*
X157738095Y-118300057D02*
X157785714Y-118395295D01*
X157785714Y-118395295D02*
X157785714Y-118490533D01*
X157785714Y-118490533D02*
X157738095Y-118633390D01*
X157738095Y-118633390D02*
X157166667Y-119204819D01*
X157166667Y-119204819D02*
X157785714Y-119204819D01*
%TO.C,J2*%
X134166666Y-124704819D02*
X134166666Y-125419104D01*
X134166666Y-125419104D02*
X134119047Y-125561961D01*
X134119047Y-125561961D02*
X134023809Y-125657200D01*
X134023809Y-125657200D02*
X133880952Y-125704819D01*
X133880952Y-125704819D02*
X133785714Y-125704819D01*
X134595238Y-124800057D02*
X134642857Y-124752438D01*
X134642857Y-124752438D02*
X134738095Y-124704819D01*
X134738095Y-124704819D02*
X134976190Y-124704819D01*
X134976190Y-124704819D02*
X135071428Y-124752438D01*
X135071428Y-124752438D02*
X135119047Y-124800057D01*
X135119047Y-124800057D02*
X135166666Y-124895295D01*
X135166666Y-124895295D02*
X135166666Y-124990533D01*
X135166666Y-124990533D02*
X135119047Y-125133390D01*
X135119047Y-125133390D02*
X134547619Y-125704819D01*
X134547619Y-125704819D02*
X135166666Y-125704819D01*
%TO.C,D1*%
X148011905Y-108704819D02*
X148011905Y-107704819D01*
X148011905Y-107704819D02*
X148250000Y-107704819D01*
X148250000Y-107704819D02*
X148392857Y-107752438D01*
X148392857Y-107752438D02*
X148488095Y-107847676D01*
X148488095Y-107847676D02*
X148535714Y-107942914D01*
X148535714Y-107942914D02*
X148583333Y-108133390D01*
X148583333Y-108133390D02*
X148583333Y-108276247D01*
X148583333Y-108276247D02*
X148535714Y-108466723D01*
X148535714Y-108466723D02*
X148488095Y-108561961D01*
X148488095Y-108561961D02*
X148392857Y-108657200D01*
X148392857Y-108657200D02*
X148250000Y-108704819D01*
X148250000Y-108704819D02*
X148011905Y-108704819D01*
X149535714Y-108704819D02*
X148964286Y-108704819D01*
X149250000Y-108704819D02*
X149250000Y-107704819D01*
X149250000Y-107704819D02*
X149154762Y-107847676D01*
X149154762Y-107847676D02*
X149059524Y-107942914D01*
X149059524Y-107942914D02*
X148964286Y-107990533D01*
%TO.C,C4*%
X148333333Y-123359580D02*
X148285714Y-123407200D01*
X148285714Y-123407200D02*
X148142857Y-123454819D01*
X148142857Y-123454819D02*
X148047619Y-123454819D01*
X148047619Y-123454819D02*
X147904762Y-123407200D01*
X147904762Y-123407200D02*
X147809524Y-123311961D01*
X147809524Y-123311961D02*
X147761905Y-123216723D01*
X147761905Y-123216723D02*
X147714286Y-123026247D01*
X147714286Y-123026247D02*
X147714286Y-122883390D01*
X147714286Y-122883390D02*
X147761905Y-122692914D01*
X147761905Y-122692914D02*
X147809524Y-122597676D01*
X147809524Y-122597676D02*
X147904762Y-122502438D01*
X147904762Y-122502438D02*
X148047619Y-122454819D01*
X148047619Y-122454819D02*
X148142857Y-122454819D01*
X148142857Y-122454819D02*
X148285714Y-122502438D01*
X148285714Y-122502438D02*
X148333333Y-122550057D01*
X149190476Y-122788152D02*
X149190476Y-123454819D01*
X148952381Y-122407200D02*
X148714286Y-123121485D01*
X148714286Y-123121485D02*
X149333333Y-123121485D01*
%TO.C,R2*%
X151333333Y-123454819D02*
X151000000Y-122978628D01*
X150761905Y-123454819D02*
X150761905Y-122454819D01*
X150761905Y-122454819D02*
X151142857Y-122454819D01*
X151142857Y-122454819D02*
X151238095Y-122502438D01*
X151238095Y-122502438D02*
X151285714Y-122550057D01*
X151285714Y-122550057D02*
X151333333Y-122645295D01*
X151333333Y-122645295D02*
X151333333Y-122788152D01*
X151333333Y-122788152D02*
X151285714Y-122883390D01*
X151285714Y-122883390D02*
X151238095Y-122931009D01*
X151238095Y-122931009D02*
X151142857Y-122978628D01*
X151142857Y-122978628D02*
X150761905Y-122978628D01*
X151714286Y-122550057D02*
X151761905Y-122502438D01*
X151761905Y-122502438D02*
X151857143Y-122454819D01*
X151857143Y-122454819D02*
X152095238Y-122454819D01*
X152095238Y-122454819D02*
X152190476Y-122502438D01*
X152190476Y-122502438D02*
X152238095Y-122550057D01*
X152238095Y-122550057D02*
X152285714Y-122645295D01*
X152285714Y-122645295D02*
X152285714Y-122740533D01*
X152285714Y-122740533D02*
X152238095Y-122883390D01*
X152238095Y-122883390D02*
X151666667Y-123454819D01*
X151666667Y-123454819D02*
X152285714Y-123454819D01*
%TO.C,J3*%
X136416666Y-111704819D02*
X136416666Y-112419104D01*
X136416666Y-112419104D02*
X136369047Y-112561961D01*
X136369047Y-112561961D02*
X136273809Y-112657200D01*
X136273809Y-112657200D02*
X136130952Y-112704819D01*
X136130952Y-112704819D02*
X136035714Y-112704819D01*
X136797619Y-111704819D02*
X137416666Y-111704819D01*
X137416666Y-111704819D02*
X137083333Y-112085771D01*
X137083333Y-112085771D02*
X137226190Y-112085771D01*
X137226190Y-112085771D02*
X137321428Y-112133390D01*
X137321428Y-112133390D02*
X137369047Y-112181009D01*
X137369047Y-112181009D02*
X137416666Y-112276247D01*
X137416666Y-112276247D02*
X137416666Y-112514342D01*
X137416666Y-112514342D02*
X137369047Y-112609580D01*
X137369047Y-112609580D02*
X137321428Y-112657200D01*
X137321428Y-112657200D02*
X137226190Y-112704819D01*
X137226190Y-112704819D02*
X136940476Y-112704819D01*
X136940476Y-112704819D02*
X136845238Y-112657200D01*
X136845238Y-112657200D02*
X136797619Y-112609580D01*
%TO.C,R4*%
X151083333Y-108704819D02*
X150750000Y-108228628D01*
X150511905Y-108704819D02*
X150511905Y-107704819D01*
X150511905Y-107704819D02*
X150892857Y-107704819D01*
X150892857Y-107704819D02*
X150988095Y-107752438D01*
X150988095Y-107752438D02*
X151035714Y-107800057D01*
X151035714Y-107800057D02*
X151083333Y-107895295D01*
X151083333Y-107895295D02*
X151083333Y-108038152D01*
X151083333Y-108038152D02*
X151035714Y-108133390D01*
X151035714Y-108133390D02*
X150988095Y-108181009D01*
X150988095Y-108181009D02*
X150892857Y-108228628D01*
X150892857Y-108228628D02*
X150511905Y-108228628D01*
X151940476Y-108038152D02*
X151940476Y-108704819D01*
X151702381Y-107657200D02*
X151464286Y-108371485D01*
X151464286Y-108371485D02*
X152083333Y-108371485D01*
%TO.C,C5*%
X154333333Y-123359580D02*
X154285714Y-123407200D01*
X154285714Y-123407200D02*
X154142857Y-123454819D01*
X154142857Y-123454819D02*
X154047619Y-123454819D01*
X154047619Y-123454819D02*
X153904762Y-123407200D01*
X153904762Y-123407200D02*
X153809524Y-123311961D01*
X153809524Y-123311961D02*
X153761905Y-123216723D01*
X153761905Y-123216723D02*
X153714286Y-123026247D01*
X153714286Y-123026247D02*
X153714286Y-122883390D01*
X153714286Y-122883390D02*
X153761905Y-122692914D01*
X153761905Y-122692914D02*
X153809524Y-122597676D01*
X153809524Y-122597676D02*
X153904762Y-122502438D01*
X153904762Y-122502438D02*
X154047619Y-122454819D01*
X154047619Y-122454819D02*
X154142857Y-122454819D01*
X154142857Y-122454819D02*
X154285714Y-122502438D01*
X154285714Y-122502438D02*
X154333333Y-122550057D01*
X155238095Y-122454819D02*
X154761905Y-122454819D01*
X154761905Y-122454819D02*
X154714286Y-122931009D01*
X154714286Y-122931009D02*
X154761905Y-122883390D01*
X154761905Y-122883390D02*
X154857143Y-122835771D01*
X154857143Y-122835771D02*
X155095238Y-122835771D01*
X155095238Y-122835771D02*
X155190476Y-122883390D01*
X155190476Y-122883390D02*
X155238095Y-122931009D01*
X155238095Y-122931009D02*
X155285714Y-123026247D01*
X155285714Y-123026247D02*
X155285714Y-123264342D01*
X155285714Y-123264342D02*
X155238095Y-123359580D01*
X155238095Y-123359580D02*
X155190476Y-123407200D01*
X155190476Y-123407200D02*
X155095238Y-123454819D01*
X155095238Y-123454819D02*
X154857143Y-123454819D01*
X154857143Y-123454819D02*
X154761905Y-123407200D01*
X154761905Y-123407200D02*
X154714286Y-123359580D01*
%TO.C,J1*%
X161374819Y-119293333D02*
X162089104Y-119293333D01*
X162089104Y-119293333D02*
X162231961Y-119340952D01*
X162231961Y-119340952D02*
X162327200Y-119436190D01*
X162327200Y-119436190D02*
X162374819Y-119579047D01*
X162374819Y-119579047D02*
X162374819Y-119674285D01*
X162374819Y-118293333D02*
X162374819Y-118864761D01*
X162374819Y-118579047D02*
X161374819Y-118579047D01*
X161374819Y-118579047D02*
X161517676Y-118674285D01*
X161517676Y-118674285D02*
X161612914Y-118769523D01*
X161612914Y-118769523D02*
X161660533Y-118864761D01*
%TO.C,C1*%
X160333333Y-106109580D02*
X160285714Y-106157200D01*
X160285714Y-106157200D02*
X160142857Y-106204819D01*
X160142857Y-106204819D02*
X160047619Y-106204819D01*
X160047619Y-106204819D02*
X159904762Y-106157200D01*
X159904762Y-106157200D02*
X159809524Y-106061961D01*
X159809524Y-106061961D02*
X159761905Y-105966723D01*
X159761905Y-105966723D02*
X159714286Y-105776247D01*
X159714286Y-105776247D02*
X159714286Y-105633390D01*
X159714286Y-105633390D02*
X159761905Y-105442914D01*
X159761905Y-105442914D02*
X159809524Y-105347676D01*
X159809524Y-105347676D02*
X159904762Y-105252438D01*
X159904762Y-105252438D02*
X160047619Y-105204819D01*
X160047619Y-105204819D02*
X160142857Y-105204819D01*
X160142857Y-105204819D02*
X160285714Y-105252438D01*
X160285714Y-105252438D02*
X160333333Y-105300057D01*
X161285714Y-106204819D02*
X160714286Y-106204819D01*
X161000000Y-106204819D02*
X161000000Y-105204819D01*
X161000000Y-105204819D02*
X160904762Y-105347676D01*
X160904762Y-105347676D02*
X160809524Y-105442914D01*
X160809524Y-105442914D02*
X160714286Y-105490533D01*
D13*
%TO.C,R3*%
X144515000Y-125977064D02*
X144515000Y-125522936D01*
X145985000Y-125977064D02*
X145985000Y-125522936D01*
%TO.C,R1*%
X141522936Y-114265000D02*
X141977064Y-114265000D01*
X141522936Y-115735000D02*
X141977064Y-115735000D01*
%TO.C,C3*%
X155538748Y-113640000D02*
X156961252Y-113640000D01*
X155538748Y-116360000D02*
X156961252Y-116360000D01*
%TO.C,F1*%
X144396248Y-100330000D02*
X148803752Y-100330000D01*
X144396248Y-105670000D02*
X148803752Y-105670000D01*
%TO.C,R5*%
X145485000Y-113772936D02*
X145485000Y-114227064D01*
X144015000Y-113772936D02*
X144015000Y-114227064D01*
D14*
%TO.C,U1*%
X147500000Y-119950000D02*
X147500000Y-115550000D01*
X152500000Y-119950000D02*
X152500000Y-115550000D01*
D15*
X148140000Y-121950000D02*
G75*
G03*
X148140000Y-121950000I-100000J0D01*
G01*
D13*
%TO.C,D2*%
X157950000Y-119740000D02*
X156050000Y-119740000D01*
X157950000Y-119740000D02*
X157950000Y-123400000D01*
X156050000Y-119740000D02*
X156050000Y-123400000D01*
%TO.C,J2*%
X133810000Y-113920000D02*
X126190000Y-113920000D01*
X126190000Y-113920000D02*
X126190000Y-124080000D01*
X133810000Y-124080000D02*
X133810000Y-113920000D01*
X127460000Y-124080000D02*
X127460000Y-113920000D01*
X126190000Y-124080000D02*
X133810000Y-124080000D01*
%TO.C,D1*%
X147790000Y-112685000D02*
X149710000Y-112685000D01*
X149710000Y-112685000D02*
X149710000Y-110000000D01*
X147790000Y-110000000D02*
X147790000Y-112685000D01*
%TO.C,C4*%
X147765000Y-126011252D02*
X147765000Y-125488748D01*
X149235000Y-126011252D02*
X149235000Y-125488748D01*
%TO.C,R2*%
X150765000Y-125977064D02*
X150765000Y-125522936D01*
X152235000Y-125977064D02*
X152235000Y-125522936D01*
%TO.C,J3*%
X139610000Y-100890000D02*
X139610000Y-103700000D01*
X133550000Y-100890000D02*
X139610000Y-100890000D01*
X126390000Y-100890000D02*
X129450000Y-100890000D01*
X139800000Y-105000000D02*
X139800000Y-107000000D01*
X139610000Y-108300000D02*
X139610000Y-111110000D01*
X139610000Y-111110000D02*
X133550000Y-111110000D01*
X129450000Y-111110000D02*
X126390000Y-111110000D01*
X126390000Y-111110000D02*
X126390000Y-100890000D01*
%TO.C,R4*%
X150515000Y-111227064D02*
X150515000Y-110772936D01*
X151985000Y-111227064D02*
X151985000Y-110772936D01*
%TO.C,C5*%
X153765000Y-126011252D02*
X153765000Y-125488748D01*
X155235000Y-126011252D02*
X155235000Y-125488748D01*
%TO.C,J1*%
X163190000Y-124040000D02*
X170810000Y-124040000D01*
X170810000Y-124040000D02*
X170810000Y-113880000D01*
X163190000Y-113880000D02*
X163190000Y-124040000D01*
X169540000Y-113880000D02*
X169540000Y-124040000D01*
X170810000Y-113880000D02*
X163190000Y-113880000D01*
%TO.C,C1*%
X154740000Y-109585000D02*
X159260000Y-109585000D01*
X159260000Y-109585000D02*
X159260000Y-101350000D01*
X154740000Y-101350000D02*
X154740000Y-109585000D01*
%TD*%
M02*
