M48
; DRILL file {KiCad 7.0.5-1.fc38} date Fri 21 Jul 2023 11:59:45 AM EDT
; FORMAT={-:-/ absolute / inch / decimal}
; #@! TF.CreationDate,2023-07-21T11:59:45-04:00
; #@! TF.GenerationSoftware,Kicad,Pcbnew,7.0.5-1.fc38
; #@! TF.FileFunction,Plated,1,2,PTH
FMAT,2
INCH
; #@! TA.AperFunction,Plated,PTH,ViaDrill
T1C0.0157
; #@! TA.AperFunction,Plated,PTH,ComponentDrill
T2C0.0394
; #@! TA.AperFunction,Plated,PTH,ComponentDrill
T3C0.0598
; #@! TA.AperFunction,Plated,PTH,ViaDrill
T4C0.1339
%
G90
G05
T1
X5.7185Y-4.6457
X5.7185Y-4.7244
X5.7185Y-5.0394
X5.7677Y-4.5965
X5.7677Y-4.6752
X5.8465Y-4.5965
X5.8465Y-4.6654
X5.8465Y-5.0394
X5.9055Y-4.4587
X5.9055Y-4.5965
X5.9055Y-4.6654
X5.9646Y-4.5965
X5.9646Y-4.6654
X5.9646Y-5.0394
X6.0335Y-4.5965
X6.0335Y-4.6752
X6.0728Y-4.6358
X6.0827Y-5.0394
X6.1102Y-4.0079
X6.1122Y-4.6752
X6.1732Y-4.9173
X6.2126Y-4.4488
X6.2126Y-4.6063
X6.2323Y-4.8661
X6.252Y-4.0079
T3
X5.1181Y-4.585
X5.1181Y-4.785
X6.5748Y-4.5835
X6.5748Y-4.7835
T4
X5.1181Y-3.7795
X5.1181Y-5.0394
X6.5748Y-3.7795
X6.5748Y-5.0394
T2
G00X5.2067Y-3.9961
M15
G01X5.1476Y-3.9961
M16
G05
G00X5.2067Y-4.3504
M15
G01X5.1476Y-4.3504
M16
G05
G00X5.2165Y-4.1476
M15
G01X5.2165Y-4.1988
M16
G05
G00X5.4528Y-4.1339
M15
G01X5.4528Y-4.2126
M16
G05
T0
M30
