%TF.GenerationSoftware,KiCad,Pcbnew,7.0.5-1.fc38*%
%TF.CreationDate,2023-07-21T11:59:43-04:00*%
%TF.ProjectId,driver-v0,64726976-6572-42d7-9630-2e6b69636164,rev?*%
%TF.SameCoordinates,Original*%
%TF.FileFunction,Paste,Top*%
%TF.FilePolarity,Positive*%
%FSLAX46Y46*%
G04 Gerber Fmt 4.6, Leading zero omitted, Abs format (unit mm)*
G04 Created by KiCad (PCBNEW 7.0.5-1.fc38) date 2023-07-21 11:59:43*
%MOMM*%
%LPD*%
G01*
G04 APERTURE LIST*
G04 Aperture macros list*
%AMRoundRect*
0 Rectangle with rounded corners*
0 $1 Rounding radius*
0 $2 $3 $4 $5 $6 $7 $8 $9 X,Y pos of 4 corners*
0 Add a 4 corners polygon primitive as box body*
4,1,4,$2,$3,$4,$5,$6,$7,$8,$9,$2,$3,0*
0 Add four circle primitives for the rounded corners*
1,1,$1+$1,$2,$3*
1,1,$1+$1,$4,$5*
1,1,$1+$1,$6,$7*
1,1,$1+$1,$8,$9*
0 Add four rect primitives between the rounded corners*
20,1,$1+$1,$2,$3,$4,$5,0*
20,1,$1+$1,$4,$5,$6,$7,0*
20,1,$1+$1,$6,$7,$8,$9,0*
20,1,$1+$1,$8,$9,$2,$3,0*%
G04 Aperture macros list end*
%ADD10C,0.010000*%
%ADD11RoundRect,0.250000X0.450000X-0.262500X0.450000X0.262500X-0.450000X0.262500X-0.450000X-0.262500X0*%
%ADD12RoundRect,0.250000X-0.262500X-0.450000X0.262500X-0.450000X0.262500X0.450000X-0.262500X0.450000X0*%
%ADD13RoundRect,0.250000X-0.325000X-1.100000X0.325000X-1.100000X0.325000X1.100000X-0.325000X1.100000X0*%
%ADD14RoundRect,0.250000X-0.712500X-2.475000X0.712500X-2.475000X0.712500X2.475000X-0.712500X2.475000X0*%
%ADD15RoundRect,0.250000X-0.450000X0.262500X-0.450000X-0.262500X0.450000X-0.262500X0.450000X0.262500X0*%
%ADD16R,1.200000X1.200000*%
%ADD17RoundRect,0.243750X0.456250X-0.243750X0.456250X0.243750X-0.456250X0.243750X-0.456250X-0.243750X0*%
%ADD18RoundRect,0.250000X0.475000X-0.250000X0.475000X0.250000X-0.475000X0.250000X-0.475000X-0.250000X0*%
%ADD19RoundRect,0.250000X1.025000X-0.875000X1.025000X0.875000X-1.025000X0.875000X-1.025000X-0.875000X0*%
G04 APERTURE END LIST*
%TO.C,U1*%
D10*
X148175000Y-121325000D02*
X147925000Y-121325000D01*
X147925000Y-119775000D01*
X148175000Y-119775000D01*
X148175000Y-121325000D01*
G36*
X148175000Y-121325000D02*
G01*
X147925000Y-121325000D01*
X147925000Y-119775000D01*
X148175000Y-119775000D01*
X148175000Y-121325000D01*
G37*
X148825000Y-121325000D02*
X148575000Y-121325000D01*
X148575000Y-119775000D01*
X148825000Y-119775000D01*
X148825000Y-121325000D01*
G36*
X148825000Y-121325000D02*
G01*
X148575000Y-121325000D01*
X148575000Y-119775000D01*
X148825000Y-119775000D01*
X148825000Y-121325000D01*
G37*
X149475000Y-121325000D02*
X149225000Y-121325000D01*
X149225000Y-119775000D01*
X149475000Y-119775000D01*
X149475000Y-121325000D01*
G36*
X149475000Y-121325000D02*
G01*
X149225000Y-121325000D01*
X149225000Y-119775000D01*
X149475000Y-119775000D01*
X149475000Y-121325000D01*
G37*
X150125000Y-121325000D02*
X149875000Y-121325000D01*
X149875000Y-119775000D01*
X150125000Y-119775000D01*
X150125000Y-121325000D01*
G36*
X150125000Y-121325000D02*
G01*
X149875000Y-121325000D01*
X149875000Y-119775000D01*
X150125000Y-119775000D01*
X150125000Y-121325000D01*
G37*
X150775000Y-121325000D02*
X150525000Y-121325000D01*
X150525000Y-119775000D01*
X150775000Y-119775000D01*
X150775000Y-121325000D01*
G36*
X150775000Y-121325000D02*
G01*
X150525000Y-121325000D01*
X150525000Y-119775000D01*
X150775000Y-119775000D01*
X150775000Y-121325000D01*
G37*
X151425000Y-121325000D02*
X151175000Y-121325000D01*
X151175000Y-119775000D01*
X151425000Y-119775000D01*
X151425000Y-121325000D01*
G36*
X151425000Y-121325000D02*
G01*
X151175000Y-121325000D01*
X151175000Y-119775000D01*
X151425000Y-119775000D01*
X151425000Y-121325000D01*
G37*
X152075000Y-121325000D02*
X151825000Y-121325000D01*
X151825000Y-119775000D01*
X152075000Y-119775000D01*
X152075000Y-121325000D01*
G36*
X152075000Y-121325000D02*
G01*
X151825000Y-121325000D01*
X151825000Y-119775000D01*
X152075000Y-119775000D01*
X152075000Y-121325000D01*
G37*
X151155000Y-118980000D02*
X148845000Y-118980000D01*
X148845000Y-116520000D01*
X151155000Y-116520000D01*
X151155000Y-118980000D01*
G36*
X151155000Y-118980000D02*
G01*
X148845000Y-118980000D01*
X148845000Y-116520000D01*
X151155000Y-116520000D01*
X151155000Y-118980000D01*
G37*
X148175000Y-115725000D02*
X147925000Y-115725000D01*
X147925000Y-114175000D01*
X148175000Y-114175000D01*
X148175000Y-115725000D01*
G36*
X148175000Y-115725000D02*
G01*
X147925000Y-115725000D01*
X147925000Y-114175000D01*
X148175000Y-114175000D01*
X148175000Y-115725000D01*
G37*
X148825000Y-115725000D02*
X148575000Y-115725000D01*
X148575000Y-114175000D01*
X148825000Y-114175000D01*
X148825000Y-115725000D01*
G36*
X148825000Y-115725000D02*
G01*
X148575000Y-115725000D01*
X148575000Y-114175000D01*
X148825000Y-114175000D01*
X148825000Y-115725000D01*
G37*
X149475000Y-115725000D02*
X149225000Y-115725000D01*
X149225000Y-114175000D01*
X149475000Y-114175000D01*
X149475000Y-115725000D01*
G36*
X149475000Y-115725000D02*
G01*
X149225000Y-115725000D01*
X149225000Y-114175000D01*
X149475000Y-114175000D01*
X149475000Y-115725000D01*
G37*
X150125000Y-115725000D02*
X149875000Y-115725000D01*
X149875000Y-114175000D01*
X150125000Y-114175000D01*
X150125000Y-115725000D01*
G36*
X150125000Y-115725000D02*
G01*
X149875000Y-115725000D01*
X149875000Y-114175000D01*
X150125000Y-114175000D01*
X150125000Y-115725000D01*
G37*
X150775000Y-115725000D02*
X150525000Y-115725000D01*
X150525000Y-114175000D01*
X150775000Y-114175000D01*
X150775000Y-115725000D01*
G36*
X150775000Y-115725000D02*
G01*
X150525000Y-115725000D01*
X150525000Y-114175000D01*
X150775000Y-114175000D01*
X150775000Y-115725000D01*
G37*
X151425000Y-115725000D02*
X151175000Y-115725000D01*
X151175000Y-114175000D01*
X151425000Y-114175000D01*
X151425000Y-115725000D01*
G36*
X151425000Y-115725000D02*
G01*
X151175000Y-115725000D01*
X151175000Y-114175000D01*
X151425000Y-114175000D01*
X151425000Y-115725000D01*
G37*
X152075000Y-115725000D02*
X151825000Y-115725000D01*
X151825000Y-114175000D01*
X152075000Y-114175000D01*
X152075000Y-115725000D01*
G36*
X152075000Y-115725000D02*
G01*
X151825000Y-115725000D01*
X151825000Y-114175000D01*
X152075000Y-114175000D01*
X152075000Y-115725000D01*
G37*
%TD*%
D11*
%TO.C,R3*%
X145250000Y-126662500D03*
X145250000Y-124837500D03*
%TD*%
D12*
%TO.C,R1*%
X140837500Y-115000000D03*
X142662500Y-115000000D03*
%TD*%
D13*
%TO.C,C3*%
X154775000Y-115000000D03*
X157725000Y-115000000D03*
%TD*%
D14*
%TO.C,F1*%
X143212500Y-103000000D03*
X149987500Y-103000000D03*
%TD*%
D15*
%TO.C,R5*%
X144750000Y-113087500D03*
X144750000Y-114912500D03*
%TD*%
D16*
%TO.C,D2*%
X157000000Y-120600000D03*
X157000000Y-123400000D03*
%TD*%
D17*
%TO.C,D1*%
X148750000Y-111937500D03*
X148750000Y-110062500D03*
%TD*%
D18*
%TO.C,C4*%
X148500000Y-126700000D03*
X148500000Y-124800000D03*
%TD*%
D11*
%TO.C,R2*%
X151500000Y-126662500D03*
X151500000Y-124837500D03*
%TD*%
%TO.C,R4*%
X151250000Y-111912500D03*
X151250000Y-110087500D03*
%TD*%
D18*
%TO.C,C5*%
X154500000Y-126700000D03*
X154500000Y-124800000D03*
%TD*%
D19*
%TO.C,C1*%
X157000000Y-108200000D03*
X157000000Y-101800000D03*
%TD*%
M02*
